# xmcd
#
# Track frame offsets:
#	150
#	27444
#	55040
#	75358
#	101270
#	126210
#	147639
#	172661
#	202764
#	213601
#	237718
#	256879
#	280093
#	308940
#
# Disc length: 4383 seconds
#
# Revision: 1
# Processed by: cddbd v1.4PL0 Copyright (c) Steve Scherf et al.
# Submitted via: EasyCDDAExtractor 6.0.0.1
#
DISCID=be111d0e
DTITLE=Walter Trout And The Radicals - Relentless
DYEAR=2003
DGENRE=Blues Rock
TTITLE0=I'm Tired
TTITLE1=The Life I Chose
TTITLE2=Jericho Road
TTITLE3=Work No More
TTITLE4=Talk To Ya
TTITLE5=Cry If You Want To
TTITLE6=Chatroom Girl
TTITLE7=My Heart Is True
TTITLE8=Lonely Tonight
TTITLE9=Helpin' Hand
TTITLE10=Collingswood
TTITLE11=Empty Eyes
TTITLE12=The Best You Got
TTITLE13=Mercy
EXTD=
EXTT0=
EXTT1=
EXTT2=
EXTT3=
EXTT4=
EXTT5=
EXTT6=
EXTT7=
EXTT8=
EXTT9=
EXTT10=
EXTT11=
EXTT12=
EXTT13=
PLAYORDER=
